<svg height="495pt" viewBox="-15 0 495 495.434" width="495pt" xmlns="http://www.w3.org/2000/svg"><path d="m200.21875 295.433594-24 56 56 56 56-56-24-56-32 18.664062zm0 0" fill="#f5d8a9"/><path d="m328.21875 175.433594h-18.90625l1.183594-24.855469-30.277344.855469-48 32-48-32-30.28125-.855469 1.183594 24.855469h-18.902344c-8.839844 0-16 7.160156-16 16v32c0 8.839844 7.160156 16 16 16h21.957031l1.496094 31.265625c.335937 5.4375 3.433594 10.335937 8.199219 12.992187l56.578125 31.429688c4.832031 2.6875 10.710937 2.6875 15.542969 0l56.578124-31.429688c4.765626-2.648437 7.855469-7.546875 8.199219-12.992187l1.488281-31.265625h21.960938c8.839844 0 16-7.160156 16-16v-32c0-8.839844-7.160156-16-16-16zm0 0" fill="#fee7c1"/><path d="m152.21875 159.433594 32-8 48 32 48-32 32 8v-48l-80 32-80-32zm0 0" fill="#33c0db"/><path d="m288.21875 343.433594-56 56-56-56-113.851562 36.832031c-13.980469 4.527344-25.125 15.207031-30.238282 29l-31.910156 86.167969h464l-31.785156-88.992188c-5.160156-14.457031-16.929688-25.574218-31.65625-29.902344zm0 0" fill="#706d69"/><path d="m320.21875 383.433594v80l32-24 32 24v-89.441406c0-3.8125-2.691406-7.09375-6.433594-7.847657l-33.566406-6.710937zm0 0" fill="#33c0db"/><path d="m400.21875 175.433594c-8.839844 0-16-7.160156-16-16v-24c0-8.839844 7.160156-16 16-16s16 7.160156 16 16v24c0 8.839844-7.160156 16-16 16zm0 0" fill="#9bc53d"/><g fill="#706d69"><path d="m152.21875 115.792969 80 27.640625 80-27.640625v-52.359375l-30.058594-8.945313c-33.015625-9.824219-68.183594-9.742187-101.152344.234375l-28.789062 8.710938zm0 0"/><path d="m408.21875 103.433594h-16v-32h-16v-16h24c4.414062 0 8 3.585937 8 8zm0 0"/><path d="m392.21875 191.433594h16v24h-16zm0 0"/><path d="m411.300781 189.027344 13.855469-8.003906 12.003906 20.785156-13.859375 8.003906zm0 0"/><path d="m363.289062 201.8125 11.996094-20.785156 13.859375 7.996094-12 20.789062zm0 0"/></g><path d="m264.21875 463.433594c0 17.671875-14.328125 32-32 32-17.675781 0-32-14.328125-32-32s14.324219-32 32-32c17.671875 0 32 14.328125 32 32zm0 0" fill="#33c0db"/><path d="m232.21875 431.433594c10.957031 0 20.613281 5.527344 26.382812 13.929687l86.28125-85.265625-56.664062-16.664062-56 56-56-56-52.152344 16.871094 82.230469 84.496093c5.808594-8.0625 15.222656-13.367187 25.921875-13.367187zm0 0" fill="#9bc53d"/><path d="m382.296875 56.609375-147.230469-56.085937c-1.832031-.699219-3.867187-.699219-5.699218 0l-147.230469 56.085937c-6.640625 2.527344-6.9375 11.816406-.464844 14.761719l70.546875 32.0625v-34.046875c0-3.535157 2.316406-6.648438 5.703125-7.664063l23.726563-7.121094c13.921874-4.175781 28.242187-6.480468 42.609374-7.136718l-.039062 63.960937 16 .007813.03125-63.960938c14.351562.65625 28.640625 2.960938 42.535156 7.128906l23.726563 7.121094c3.386719 1.015625 5.707031 4.128906 5.707031 7.664063v34.046875l70.542969-32.0625c6.472656-2.945313 6.183593-12.234375-.464844-14.761719zm0 0" fill="#9c9792"/></svg>